<svg width="25" height="30" viewBox="0 0 25 30" fill="none" xmlns="http://www.w3.org/2000/svg">
<path d="M16.7725 2.85116L21.0681 5.68968V7.4054C21.0681 8.35157 21.0555 9.12744 21.0303 9.12744C20.9987 9.12744 17.5231 6.844 14.1169 4.5795L12.4264 3.45671L7.63246 6.61693L2.83852 9.77714V16.7347V23.6922L1.41926 22.7649L0.0063082 21.8377V14.9937L0 8.14972L1.91127 6.90078C2.95837 6.21953 5.74642 4.38396 8.10555 2.82593C10.4647 1.26789 12.4138 -0.0062835 12.4327 2.43152e-05C12.4579 0.00633213 14.4071 1.28682 16.7725 2.85116ZM13.1833 5.11566L13.8457 5.56983L13.8646 7.52525L13.8772 9.48067L12.4642 10.5972C11.6821 11.209 11.0387 11.7136 11.0261 11.7136C10.9756 11.7136 10.9756 10.4079 11.0134 8.08034L11.0513 5.5509L11.6947 5.10305C12.0416 4.85704 12.3759 4.65519 12.4264 4.65519C12.4769 4.65519 12.8175 4.85704 13.1833 5.11566ZM23.4714 7.26663L24.8528 8.18126V14.9937V21.8061L22.9605 23.0551C21.9197 23.7363 19.119 25.5782 16.7473 27.1489L12.4201 30L9.4428 28.0383C7.80277 26.9596 5.85996 25.6791 5.12826 25.1934L3.78469 24.3167V22.5883C3.78469 21.6358 3.79731 20.86 3.81623 20.86C3.83515 20.86 5.77796 22.1342 8.13708 23.6985L12.4264 26.5307L15.9714 24.1842C17.9268 22.8911 20.0652 21.4844 20.7275 21.0492L21.9323 20.2607L21.9764 19.9453C21.9954 19.7687 22.0143 16.64 22.0143 12.9878C22.0143 9.3419 22.0332 6.352 22.0521 6.352C22.0774 6.352 22.7145 6.762 23.4714 7.26663ZM16.7346 10.8936C16.7788 10.9315 16.1732 11.4235 13.2464 13.7069C12.5336 14.262 11.4424 15.1199 10.8179 15.6056C10.1934 16.0976 9.29772 16.7914 8.83094 17.1573L7.9857 17.8196L7.79015 17.6871C6.99537 17.1447 6.3709 16.6653 6.3709 16.6085C6.3709 16.5707 8.35155 15 10.7674 13.1266L15.164 9.70776L15.9209 10.2818C16.3436 10.5908 16.7031 10.8684 16.7346 10.8936ZM18.5261 12.1426L19.2956 12.7166L18.9991 12.9626C18.8351 13.0951 16.886 14.6215 14.6657 16.3499C12.4453 18.0782 10.5971 19.5164 10.553 19.5479C10.4962 19.5921 10.2313 19.4344 9.65727 19.0181C9.20311 18.6964 8.83725 18.4125 8.84987 18.3873C8.85618 18.3621 9.70142 17.6934 10.7233 16.8987C11.7452 16.1039 13.7195 14.5585 15.1072 13.4609C16.4949 12.3697 17.6556 11.4992 17.6934 11.5244C17.7313 11.5496 18.1034 11.8272 18.5261 12.1426ZM13.8646 21.3646L13.8457 24.4176L13.1392 24.9096L12.439 25.4016L11.783 24.9601C11.4298 24.7204 11.0955 24.4933 11.0513 24.4491C10.9819 24.3924 10.9693 23.976 10.9882 22.3865L11.0134 20.3995L11.1901 20.267C11.2847 20.1913 11.9092 19.7056 12.5715 19.1821C13.2401 18.6585 13.8015 18.2485 13.833 18.2738C13.8583 18.2927 13.8709 19.6867 13.8646 21.3646Z" fill="#EB851C"/>
</svg>
