<svg width="20" height="20" viewBox="0 0 20 20" fill="none" xmlns="http://www.w3.org/2000/svg">
<path d="M20 20L16 16H6C5.45 16 4.97917 15.8042 4.5875 15.4125C4.19583 15.0208 4 14.55 4 14V13H15C15.55 13 16.0208 12.8042 16.4125 12.4125C16.8042 12.0208 17 11.55 17 11V4H18C18.55 4 19.0208 4.19583 19.4125 4.5875C19.8042 4.97917 20 5.45 20 6V20ZM2 10.175L3.175 9H13V2H2V10.175ZM0 15V2C0 1.45 0.195833 0.979167 0.5875 0.5875C0.979167 0.195833 1.45 0 2 0H13C13.55 0 14.0208 0.195833 14.4125 0.5875C14.8042 0.979167 15 1.45 15 2V9C15 9.55 14.8042 10.0208 14.4125 10.4125C14.0208 10.8042 13.55 11 13 11H4L0 15ZM2 9V2V9Z" fill="#EB851C"/>
</svg>
