<svg width="18" height="18" viewBox="0 0 18 18" fill="none" xmlns="http://www.w3.org/2000/svg">
<path d="M2.2 17.0175C1.58333 17.0175 1.0625 16.805 0.6375 16.38C0.2125 15.955 0 15.4341 0 14.8175V1.11746C0 0.634127 0.225 0.296627 0.675 0.10496C1.125 -0.0867063 1.51667 -0.015873 1.85 0.31746L4.1 2.56746L2.75 3.91746L3.45 4.61746L4.8 3.26746L7.4 5.86746L6.05 7.21746L6.75 7.91746L8.1 6.56746L10.7 9.16746L9.35 10.5175L10.05 11.2175L11.4 9.86746L14 12.4675L12.65 13.8175L13.35 14.5175L14.7 13.1675L16.7 15.1675C17.0333 15.5008 17.1042 15.8925 16.9125 16.3425C16.7208 16.7925 16.3833 17.0175 15.9 17.0175H2.2ZM3 14.0175H11.3L3 5.71746V14.0175Z" fill="#EB851C"/>
</svg>
